<?xml version="1.0" standalone="no"?>
<!DOCTYPE svg PUBLIC "-//W3C//DTD SVG 20010904//EN"
 "http://www.w3.org/TR/2001/REC-SVG-20010904/DTD/svg10.dtd">
<svg version="1.0" xmlns="http://www.w3.org/2000/svg"
 width="78.000000pt" height="55.000000pt" viewBox="0 0 78.000000 55.000000"
 preserveAspectRatio="xMidYMid meet">
<metadata>
Created by potrace 1.16, written by Peter Selinger 2001-2019
</metadata>
<g transform="translate(0.000000,55.000000) scale(0.100000,-0.100000)"
fill="#000000" stroke="none">
<path d="M21 364 c-28 -35 -26 -69 4 -99 22 -23 32 -25 110 -25 50 0 85 -4 85
-10 0 -6 -36 -10 -89 -10 -88 0 -90 -1 -111 -30 l-21 -30 136 0 136 0 13 30
12 30 29 -30 c16 -16 32 -30 37 -30 4 0 8 18 8 40 l0 40 56 0 c46 0 59 4 75
23 18 22 18 22 19 -40 l0 -63 40 0 c39 0 40 0 40 37 l0 37 38 -37 c34 -33 43
-37 92 -37 l54 0 -57 58 -57 57 57 58 58 57 -49 0 c-41 0 -56 -6 -92 -36 l-44
-35 0 35 0 36 -279 0 -280 0 -20 -26z"/>
</g>
</svg>
